:version 1.10
:name ASF
:units
  mass 1
  length 1
  angle deg
:documentation
  ASF file generated by Kaydara
:root
  axis xyz
  order  tx ty tz rx ry rz
  position 0 0 0
  orientation 0 0 0
:bonedata
  begin
    id 1
    name RightUpLegDummy
    direction -0.65628 -0.754516 0.00165102
    length 4.76918
    axis 0 0 0 xyz
  end
  begin
    id 2
    name RightUpLeg
    direction -0.145584 -0.923362 0.355256
    length 17.9961
    axis -24.7611 -13.1006 1.78531 xyz
    dof rx ry rz
  end
  begin
    id 3
    name RightLeg
    direction 0.263379 0.172355 -0.949171
    length 13.3386
    axis 89.6202 -21.1929 12.3855 xyz
    dof rx ry rz
  end
  begin
    id 4
    name RightFoot
    direction 0.224283 -0.968777 -0.105675
    length 5.86697
    axis 56.995 -39.6905 17.3365 xyz
    dof rx ry rz
  end
  begin
    id 5
    name RightToes
    direction -0.0806345 -0.9037 0.420506
    length 4.75197
    axis 146.825 -39.7828 17.6019 xyz
    dof rx ry rz
  end
  begin
    id 6
    name SpineDummy
    direction -3.39852e-014 1 9.33296e-014
    length 8.13779
    axis 0 0 0 xyz
  end
  begin
    id 7
    name Spine
    direction -0.156609 0.733703 0.661176
    length 7.14978
    axis 41.2365 5.68757 17.0844 xyz
    dof rx ry rz
  end
  begin
    id 8
    name Spine1
    direction 0 0 0
    length 0
    axis 42.8809 47.8308 -3.36039 xyz
    dof rx ry rz
  end
  begin
    id 9
    name HEadDummy
    direction 0.546431 0.701947 0.456819
    length 3.55512
    axis 42.8809 47.8308 -3.36039 xyz
  end
  begin
    id 10
    name HEad
    direction 0.23444 0.828559 0.508457
    length 7.35827
    axis 51.1864 49.2662 27.4903 xyz
    dof rx ry rz
  end
  begin
    id 11
    name LeftShoulder1Dummy
    direction 0.431183 0.475873 -0.766568
    length 2.49352
    axis 42.8809 47.8308 -3.36039 xyz
  end
  begin
    id 12
    name LeftShoulder1
    direction 0.268187 -0.383402 -0.883786
    length 4.48604
    axis -119.517 0.106469 35.1736 xyz
    dof rx ry rz
  end
  begin
    id 13
    name LeftArm
    direction 0.380567 -0.703221 -0.600541
    length 10.1142
    axis -5.41825 36.2925 7.8293 xyz
    dof rx ry rz
  end
  begin
    id 14
    name LeftForeArm
    direction 0.541071 -0.732356 -0.413396
    length 9.39839
    axis 4.65387 33.7604 7.81644 xyz
    dof rx ry rz
  end
  begin
    id 15
    name LeftHand
    direction 0.847511 -0.389379 -0.360707
    length 3.66142
    axis 7.65593 21.1436 -24.6758 xyz
    dof rx ry rz
  end
  begin
    id 16
    name RightShoulderDummy
    direction -0.692546 0.541855 0.476208
    length 2.49352
    axis 42.8809 47.8308 -3.36039 xyz
  end
  begin
    id 17
    name RightShoulder
    direction -0.870808 -0.316653 0.376065
    length 4.48602
    axis 141.571 51.133 -100.254 xyz
    dof rx ry rz
  end
  begin
    id 18
    name RightArm
    direction 0.366897 -0.87275 0.322015
    length 10.1142
    axis 92.3258 71.2036 138.917 xyz
    dof rx ry rz
  end
  begin
    id 19
    name RightForeArm
    direction 0.702487 -0.694568 0.155197
    length 9.39835
    axis 153.863 41.5092 -176.604 xyz
    dof rx ry rz
  end
  begin
    id 20
    name RightHand
    direction 0.79502 -0.601276 0.0800636
    length 3.66142
    axis 154.247 4.59222 142.9 xyz
    dof rx ry rz
  end
  begin
    id 21
    name LeftUpLegDummy
    direction 0.65628 -0.754516 0.00165102
    length 4.76919
    axis 0 0 0 xyz
  end
  begin
    id 22
    name LeftUpLeg
    direction -0.1277 -0.689368 0.713067
    length 17.9961
    axis -48.3385 -17.8675 0.791927 xyz
    dof rx ry rz
  end
  begin
    id 23
    name LeftLeg
    direction 0.109849 -0.991246 -0.0732378
    length 13.3386
    axis -2.05791 -7.30784 1.72042 xyz
    dof rx ry rz
  end
  begin
    id 24
    name LeftFoot
    direction 0.0448355 -0.272614 0.961078
    length 5.86697
    axis -18.7733 -7.89606 10.2113 xyz
    dof rx ry rz
  end
  begin
    id 25
    name LeftToes
    direction -0.18506 0.293668 0.937823
    length 4.75197
    axis 71.2267 -7.89606 10.2113 xyz
    dof rx ry rz
  end
:hierarchy
  begin
    root RightUpLegDummy SpineDummy LeftUpLegDummy
    RightUpLegDummy RightUpLeg
    RightUpLeg RightLeg
    RightLeg RightFoot
    RightFoot RightToes
    SpineDummy Spine
    Spine Spine1
    Spine1 HEadDummy LeftShoulder1Dummy RightShoulderDummy
    HEadDummy HEad
    LeftShoulder1Dummy LeftShoulder1
    LeftShoulder1 LeftArm
    LeftArm LeftForeArm
    LeftForeArm LeftHand
    RightShoulderDummy RightShoulder
    RightShoulder RightArm
    RightArm RightForeArm
    RightForeArm RightHand
    LeftUpLegDummy LeftUpLeg
    LeftUpLeg LeftLeg
    LeftLeg LeftFoot
    LeftFoot LeftToes
  end

:SAMPLES-PER-SECOND 30
:FULLY-SPECIFIED
:DEGREES
508
root  -3.95391 36.5627 30.8169 176.432 18.4006 -173.786
RightUpLeg  -0.219439 10.7087 18.398
RightLeg  -69.135 -13.2629 -1.90294
RightFoot  16.8838 5.88025 -17.0279
RightToes  -1.27222e-014 -6.36111e-015 6.36111e-015
Spine  -30.1523 -18.2762 -8.46306
Spine1  13.5739 -17.0807 64.8453
HEad  -19.2421 13.8294 -20.6678
LeftShoulder1  6.36111e-015 -1.33558e-015 6.49777e-015
LeftArm  32.3846 -5.45751 -49.2096
LeftForeArm  -18.3996 -25.3572 2.02899
LeftHand  0.23664 2.71526 -7.53193
RightShoulder  -4.77083e-015 -6.36111e-015 -3.18055e-015
RightArm  25.419 -21.3418 -3.71766
RightForeArm  -78.2099 11.011 -58.8263
RightHand  -0.333188 1.05167 1.30982
LeftUpLeg  42.0588 9.58711 19.2843
LeftLeg  32.9922 4.81795 8.08007
LeftFoot  13.4796 2.30875 -5.46086
LeftToes  9.54166e-015 4.2066e-011 -8.07781e-011
509
root  -3.32908 37.0227 29.7727 176.112 15.7534 -173.512
RightUpLeg  3.84304 10.3724 19.1861
RightLeg  -72.5548 -14.2809 0.698334
RightFoot  16.2937 5.76438 -16.7461
RightToes  -1.27222e-014 -6.36111e-015 6.36111e-015
Spine  -31.9599 -17.6658 -7.03179
Spine1  15.8537 -17.1133 61.371
HEad  -19.1403 12.9564 -17.149
LeftShoulder1  6.36111e-015 -1.33558e-015 6.49777e-015
LeftArm  37.8865 -3.98259 -49.9908
LeftForeArm  -17.7436 -22.6366 0.99902
LeftHand  0.354197 2.786 -6.64881
RightShoulder  -4.77083e-015 -6.36111e-015 -3.18055e-015
RightArm  24.0221 -15.9641 0.483775
RightForeArm  -75.2878 12.2485 -61.5533
RightHand  -0.458656 0.106306 3.50266
LeftUpLeg  37.1314 9.17235 18.238
LeftLeg  34.4452 5.83553 9.40803
LeftFoot  8.64795 1.81695 -4.82282
LeftToes  9.54166e-015 4.2066e-011 -8.07781e-011
510
root  -2.69687 37.8152 28.6087 176.603 11.8269 -174.429
RightUpLeg  7.81048 9.70127 18.0642
RightLeg  -78.5391 -14.0309 1.85145
RightFoot  15.9064 5.00628 -15.4132
RightToes  -1.27222e-014 -6.36111e-015 6.36111e-015
Spine  -34.3173 -16.821 -6.52044
Spine1  15.3146 -16.236 58.1116
HEad  -16.3545 9.73341 -13.8216
LeftShoulder1  6.36111e-015 -1.33558e-015 6.49777e-015
LeftArm  41.6794 -2.45101 -50.61
LeftForeArm  -14.0044 -21.5947 0.39949
LeftHand  0.436006 3.18119 -7.0644
RightShoulder  -4.77083e-015 -6.36111e-015 -3.18055e-015
RightArm  25.718 -13.9562 1.49985
RightForeArm  -70.4238 14.1384 -61.1041
RightHand  -0.632678 -0.201851 5.19005
LeftUpLeg  31.2705 9.6589 15.6143
LeftLeg  30.349 4.98995 7.45456
LeftFoot  6.40312 1.85426 -5.20363
LeftToes  9.54166e-015 4.2066e-011 -8.07781e-011
511
root  -2.10706 38.6868 27.4428 177.207 8.73659 -175.916
RightUpLeg  11.7132 8.43633 15.9519
RightLeg  -85.2752 -13.0465 1.49872
RightFoot  17.4822 4.58351 -15.0069
RightToes  -1.27222e-014 -6.36111e-015 6.36111e-015
Spine  -35.7893 -14.7945 -6.23256
Spine1  12.6371 -14.1571 53.1297
HEad  -11.9493 4.54623 -10.8571
LeftShoulder1  6.36111e-015 -1.33558e-015 6.49777e-015
LeftArm  44.0119 -0.938584 -49.8052
LeftForeArm  -9.53813 -21.211 -0.131996
LeftHand  0.415938 3.6481 -8.5326
RightShoulder  -4.77083e-015 -6.36111e-015 -3.18055e-015
RightArm  28.978 -15.097 0.447221
RightForeArm  -64.8652 15.8066 -57.6688
RightHand  -0.685337 -0.37351 5.76236
LeftUpLeg  26.7527 11.8298 13.8145
LeftLeg  21.5025 3.11664 4.14215
LeftFoot  6.35482 2.15385 -6.04842
LeftToes  9.54166e-015 4.2066e-011 -8.07781e-011
512
root  -1.62685 39.3115 26.3387 177.377 6.66046 -176.734
RightUpLeg  15.4193 7.77559 14.7166
RightLeg  -89.819 -11.9407 0.298604
RightFoot  20.1709 4.89766 -15.9756
RightToes  -1.27222e-014 -6.36111e-015 6.36111e-015
Spine  -36.2509 -11.2363 -4.74831
Spine1  10.1222 -11.6287 46.8793
HEad  -8.13028 -0.720803 -9.33651
LeftShoulder1  6.36111e-015 -1.33558e-015 6.49777e-015
LeftArm  44.0331 1.09616 -45.4578
LeftForeArm  -6.71035 -21.4006 -0.449496
LeftHand  0.186902 3.49087 -10.1312
RightShoulder  -4.77083e-015 -6.36111e-015 -3.18055e-015
RightArm  32.3123 -16.319 -1.20928
RightForeArm  -59.0674 16.3078 -51.4395
RightHand  -0.398189 -1.06654 4.2816
LeftUpLeg  24.776 14.9039 13.9002
LeftLeg  9.44246 0.278507 1.01585
LeftFoot  6.26368 2.56405 -7.21256
LeftToes  9.54166e-015 4.2066e-011 -8.07781e-011
513
root  -1.21684 39.6479 25.2584 177.331 4.96867 -176.83
RightUpLeg  19.1952 8.84107 15.4156
RightLeg  -92.7807 -11.2642 -0.6675
RightFoot  21.7029 5.49069 -17.1124
RightToes  -1.27222e-014 -6.36111e-015 6.36111e-015
Spine  -36.776 -7.47998 -2.96608
Spine1  9.27317 -9.46655 40.8347
HEad  -5.8461 -4.76266 -9.84976
LeftShoulder1  6.36111e-015 -1.33558e-015 6.49777e-015
LeftArm  42.5892 3.06868 -38.5736
LeftForeArm  -6.67856 -21.7164 -0.398188
LeftHand  -0.153547 2.68573 -11.1398
RightShoulder  -4.77083e-015 -6.36111e-015 -3.18055e-015
RightArm  35.5229 -15.6668 -2.41897
RightForeArm  -53.0893 15.3046 -43.752
RightHand  0.153209 -1.74955 1.07841
LeftUpLeg  24.5786 18.1982 15.0831
LeftLeg  -4.83927 -3.30798 -0.989026
LeftFoot  7.50927 2.67617 -7.28853
LeftToes  9.54166e-015 4.2066e-011 -8.07781e-011
514
root  -0.80796 39.7847 24.2375 177.376 3.3744 -176.971
RightUpLeg  22.9251 9.52503 16.4458
RightLeg  -96.4139 -11.0387 -0.691113
RightFoot  21.6424 6.04419 -17.9374
RightToes  -1.27222e-014 -6.36111e-015 6.36111e-015
Spine  -37.1728 -4.99602 -2.34368
Spine1  9.09575 -7.8409 35.7484
HEad  -3.90716 -7.39533 -11.3935
LeftShoulder1  6.36111e-015 -1.33558e-015 6.49777e-015
LeftArm  41.6638 4.43545 -31.7917
LeftForeArm  -8.78828 -22.184 -0.0198222
LeftHand  -0.435546 1.71396 -11.22
RightShoulder  -4.77083e-015 -6.36111e-015 -3.18055e-015
RightArm  39.2263 -13.5944 -2.55083
RightForeArm  -47.2865 13.278 -36.5611
RightHand  0.557978 -1.56436 -1.96545
LeftUpLeg  25.2141 22.1423 16.6373
LeftLeg  -20.4169 -8.14292 -1.11054
LeftFoot  10.1674 2.67589 -6.82363
LeftToes  9.54166e-015 4.2066e-011 -8.07781e-011
515
root  -0.415569 39.5661 23.2466 177.339 1.66925 -176.619
RightUpLeg  25.9118 8.80037 17.5674
RightLeg  -99.2084 -10.2458 1.96977
RightFoot  19.648 6.94588 -19.0942
RightToes  -1.27222e-014 -6.36111e-015 6.36111e-015
Spine  -36.8051 -2.8516 -1.69577
Spine1  7.99583 -6.49758 32.1989
HEad  -1.39802 -8.85275 -12.7163
LeftShoulder1  6.36111e-015 -1.33558e-015 6.49777e-015
LeftArm  42.1316 5.24738 -26.0874
LeftForeArm  -11.7938 -24.0216 0.816662
LeftHand  -0.636584 0.815746 -10.622
RightShoulder  -4.77083e-015 -6.36111e-015 -3.18055e-015
RightArm  43.7813 -10.8847 -1.19288
RightForeArm  -42.0255 11.1121 -31.0052
RightHand  0.590805 -0.637527 -3.50745
LeftUpLeg  25.3734 16.2732 13.706
LeftLeg  -34.1299 -6.57522 -6.97192
LeftFoot  11.125 3.88265 -9.64243
LeftToes  9.54166e-015 4.2066e-011 -8.07781e-011
516
root  -0.0874182 39.0008 22.2238 176.913 -0.600956 -175.306
RightUpLeg  28.1455 6.59633 19.2002
RightLeg  -99.6097 -9.46532 5.75644
RightFoot  15.4316 8.23838 -20.8324
RightToes  -1.27222e-014 -6.36111e-015 6.36111e-015
Spine  -36.1752 -0.559573 -0.257312
Spine1  6.86015 -5.54916 30.2479
HEad  0.505665 -9.34797 -13.9682
LeftShoulder1  6.36111e-015 -1.33558e-015 6.49777e-015
LeftArm  42.8823 5.2005 -21.8667
LeftForeArm  -14.7234 -27.5216 2.32513
LeftHand  -0.725274 0.330421 -10.0075
RightShoulder  -4.77083e-015 -6.36111e-015 -3.18055e-015
RightArm  49.1371 -7.86168 1.14842
RightForeArm  -37.7529 9.57506 -27.4316
RightHand  0.475451 0.222933 -3.97926
LeftUpLeg  24.6632 13.0862 12.7361
LeftLeg  -40.3764 -6.15974 -8.86003
LeftFoot  9.7883 5.90802 -15.0938
LeftToes  9.54166e-015 4.2066e-011 -8.07781e-011
517
root  0.194433 38.3596 21.2362 176.131 -3.773 -174.096
RightUpLeg  29.235 2.12347 19.4697
RightLeg  -97.4276 -10.9326 6.40824
RightFoot  10.1814 8.82713 -21.5304
RightToes  -1.27222e-014 -6.36111e-015 6.36111e-015
Spine  -35.4473 0.703168 0.628173
Spine1  7.23287 -4.95462 29.6336
HEad  0.553386 -9.09982 -15.4584
LeftShoulder1  6.36111e-015 -1.33558e-015 6.49777e-015
LeftArm  41.6668 4.4143 -19.4251
LeftForeArm  -15.7571 -31.6634 4.09103
LeftHand  -0.588053 0.63642 -9.45662
RightShoulder  -4.77083e-015 -6.36111e-015 -3.18055e-015
RightArm  54.2602 -6.04345 2.39481
RightForeArm  -35.0016 8.92799 -25.6705
RightHand  0.439211 0.58279 -4.28997
LeftUpLeg  21.9989 13.2559 12.3901
LeftLeg  -36.6218 -6.14761 -8.18792
LeftFoot  10.0617 6.44199 -16.3286
LeftToes  9.54166e-015 4.2066e-011 -8.07781e-011
518
root  0.502543 37.684 20.2759 175.23 -7.09436 -174.838
RightUpLeg  27.9628 -0.274451 18.5011
RightLeg  -89.7335 -13.4799 7.74106
RightFoot  5.48044 7.94091 -19.325
RightToes  -1.27222e-014 -6.36111e-015 6.36111e-015
Spine  -32.7372 -0.232978 -0.899545
Spine1  7.43423 -4.47567 29.3069
HEad  -0.33139 -8.877 -15.871
LeftShoulder1  6.36111e-015 -1.33558e-015 6.49777e-015
LeftArm  37.9892 4.36934 -17.7749
LeftForeArm  -13.8845 -35.1814 5.07613
LeftHand  -0.256948 1.49373 -8.66049
RightShoulder  -4.77083e-015 -6.36111e-015 -3.18055e-015
RightArm  56.9682 -8.17687 0.0171747
RightForeArm  -33.8752 8.61406 -24.9279
RightHand  0.419868 0.912944 -4.70285
LeftUpLeg  18.6244 18.4149 11.8366
LeftLeg  -27.9397 -8.65278 -4.4998
LeftFoot  14.424 5.04593 -11.5673
LeftToes  9.54166e-015 4.2066e-011 -8.07781e-011
